<svg width="76" height="75" viewBox="0 0 76 75" fill="none" xmlns="http://www.w3.org/2000/svg">
<ellipse cx="38" cy="37.5" rx="38" ry="37.5" fill="#399EFB"/>
<path d="M55.8934 24.9263C55.6455 24.6802 55.3505 24.4849 55.0256 24.3517C54.7006 24.2184 54.3521 24.1498 54 24.1498C53.648 24.1498 53.2994 24.2184 52.9745 24.3517C52.6495 24.4849 52.3546 24.6802 52.1067 24.9263L32.24 44.5088L23.8934 36.2663C23.636 36.0215 23.3321 35.829 22.9992 35.6999C22.6662 35.5707 22.3107 35.5074 21.9529 35.5135C21.5951 35.5196 21.242 35.595 20.9138 35.7354C20.5856 35.8758 20.2887 36.0785 20.04 36.3319C19.7914 36.5852 19.5959 36.8843 19.4647 37.2121C19.3335 37.5398 19.2691 37.8898 19.2753 38.242C19.2815 38.5943 19.3581 38.9418 19.5008 39.2649C19.6434 39.588 19.8493 39.8802 20.1067 40.125L30.3467 50.205C30.5946 50.451 30.8895 50.6463 31.2145 50.7796C31.5394 50.9129 31.888 50.9815 32.24 50.9815C32.5921 50.9815 32.9406 50.9129 33.2656 50.7796C33.5905 50.6463 33.8855 50.451 34.1334 50.205L55.8934 28.785C56.164 28.5392 56.3801 28.2409 56.5278 27.9088C56.6756 27.5767 56.7518 27.2181 56.7518 26.8556C56.7518 26.4931 56.6756 26.1345 56.5278 25.8025C56.3801 25.4704 56.164 25.1721 55.8934 24.9263Z" fill="white"/>
</svg>
